<?xml version="1.0" encoding="UTF-8" standalone="no"?>
<!DOCTYPE svg PUBLIC "-//W3C//DTD SVG 1.1//EN"
 "http://www.w3.org/Graphics/SVG/1.1/DTD/svg11.dtd">
<!-- Generated by graphviz version 9.0.0 (0)
 -->
<!-- Title: Guix referrers Pages: 1 -->
<svg width="456pt" height="44pt"
 viewBox="0.00 0.00 455.75 44.00" xmlns="http://www.w3.org/2000/svg" xmlns:xlink="http://www.w3.org/1999/xlink">
<g id="graph0" class="graph" transform="scale(1 1) rotate(0) translate(4 40)">
<title>Guix referrers</title>
<polygon fill="white" stroke="none" points="-4,4 -4,-40 451.75,-40 451.75,4 -4,4"/>
<!-- /gnu/store/ah7s12859i77y301wrvf926dri00lwx9&#45;tree&#45;sitter&#45;typescript&#45;0.20.3&#45;js -->
<g id="node1" class="node">
<title>/gnu/store/ah7s12859i77y301wrvf926dri00lwx9&#45;tree&#45;sitter&#45;typescript&#45;0.20.3&#45;js</title>
<polygon fill="none" stroke="black" points="213.25,-36 0,-36 0,0 213.25,0 213.25,-36"/>
<text text-anchor="middle" x="106.63" y="-14.45" font-family="sans" font-size="14.00">tree&#45;sitter&#45;typescript&#45;0.20.3&#45;js</text>
</g>
<!-- /gnu/store/lpv50nq97r6mndzlms1h2h0m0d8lnp7r&#45;tree&#45;sitter&#45;typescript&#45;0.20.3 -->
<g id="node2" class="node">
<title>/gnu/store/lpv50nq97r6mndzlms1h2h0m0d8lnp7r&#45;tree&#45;sitter&#45;typescript&#45;0.20.3</title>
<polygon fill="none" stroke="black" points="429.75,-36 231.5,-36 231.5,0 429.75,0 429.75,-36"/>
<text text-anchor="middle" x="330.62" y="-14.45" font-family="sans" font-size="14.00">tree&#45;sitter&#45;typescript&#45;0.20.3</text>
</g>
<!-- /gnu/store/lpv50nq97r6mndzlms1h2h0m0d8lnp7r&#45;tree&#45;sitter&#45;typescript&#45;0.20.3&#45;&gt;/gnu/store/lpv50nq97r6mndzlms1h2h0m0d8lnp7r&#45;tree&#45;sitter&#45;typescript&#45;0.20.3 -->
<g id="edge1" class="edge">
<title>/gnu/store/lpv50nq97r6mndzlms1h2h0m0d8lnp7r&#45;tree&#45;sitter&#45;typescript&#45;0.20.3&#45;&gt;/gnu/store/lpv50nq97r6mndzlms1h2h0m0d8lnp7r&#45;tree&#45;sitter&#45;typescript&#45;0.20.3</title>
<path fill="none" stroke="#00cdcd" d="M430.17,-23.64C440.87,-22.55 447.75,-20.67 447.75,-18 447.75,-16.46 445.45,-15.18 441.44,-14.16"/>
<polygon fill="#00cdcd" stroke="#00cdcd" points="442.09,-10.72 431.66,-12.6 440.99,-17.63 442.09,-10.72"/>
</g>
</g>
</svg>
