<?xml version="1.0" encoding="UTF-8" standalone="no"?>
<!DOCTYPE svg PUBLIC "-//W3C//DTD SVG 1.1//EN"
 "http://www.w3.org/Graphics/SVG/1.1/DTD/svg11.dtd">
<!-- Generated by graphviz version 9.0.0 (0)
 -->
<!-- Title: Guix referrers Pages: 1 -->
<svg width="606pt" height="116pt"
 viewBox="0.00 0.00 605.75 116.00" xmlns="http://www.w3.org/2000/svg" xmlns:xlink="http://www.w3.org/1999/xlink">
<g id="graph0" class="graph" transform="scale(1 1) rotate(0) translate(4 112)">
<title>Guix referrers</title>
<polygon fill="white" stroke="none" points="-4,4 -4,-112 601.75,-112 601.75,4 -4,4"/>
<!-- /gnu/store/yc83byq9zw3mzmmpd99kw05k4lblgwar&#45;tree&#45;sitter&#45;javascript&#45;0.20.0&#45;22.f772967&#45;js -->
<g id="node1" class="node">
<title>/gnu/store/yc83byq9zw3mzmmpd99kw05k4lblgwar&#45;tree&#45;sitter&#45;javascript&#45;0.20.0&#45;22.f772967&#45;js</title>
<polygon fill="none" stroke="black" points="288.25,-108 0,-108 0,-72 288.25,-72 288.25,-108"/>
<text text-anchor="middle" x="144.12" y="-86.45" font-family="sans" font-size="14.00">tree&#45;sitter&#45;javascript&#45;0.20.0&#45;22.f772967&#45;js</text>
</g>
<!-- /gnu/store/ah7s12859i77y301wrvf926dri00lwx9&#45;tree&#45;sitter&#45;typescript&#45;0.20.3&#45;js -->
<g id="node2" class="node">
<title>/gnu/store/ah7s12859i77y301wrvf926dri00lwx9&#45;tree&#45;sitter&#45;typescript&#45;0.20.3&#45;js</title>
<polygon fill="none" stroke="black" points="250.75,-36 37.5,-36 37.5,0 250.75,0 250.75,-36"/>
<text text-anchor="middle" x="144.12" y="-14.45" font-family="sans" font-size="14.00">tree&#45;sitter&#45;typescript&#45;0.20.3&#45;js</text>
</g>
<!-- /gnu/store/yc83byq9zw3mzmmpd99kw05k4lblgwar&#45;tree&#45;sitter&#45;javascript&#45;0.20.0&#45;22.f772967&#45;js&#45;&gt;/gnu/store/ah7s12859i77y301wrvf926dri00lwx9&#45;tree&#45;sitter&#45;typescript&#45;0.20.3&#45;js -->
<g id="edge1" class="edge">
<title>/gnu/store/yc83byq9zw3mzmmpd99kw05k4lblgwar&#45;tree&#45;sitter&#45;javascript&#45;0.20.0&#45;22.f772967&#45;js&#45;&gt;/gnu/store/ah7s12859i77y301wrvf926dri00lwx9&#45;tree&#45;sitter&#45;typescript&#45;0.20.3&#45;js</title>
<path fill="none" stroke="magenta" d="M144.12,-71.7C144.12,-64.41 144.12,-55.73 144.12,-47.54"/>
<polygon fill="magenta" stroke="magenta" points="147.63,-47.62 144.13,-37.62 140.63,-47.62 147.63,-47.62"/>
</g>
<!-- /gnu/store/h1699vsl3jmd73j03kh5mlmvcbpp1n77&#45;tree&#45;sitter&#45;javascript&#45;0.20.0&#45;22.f772967 -->
<g id="node3" class="node">
<title>/gnu/store/h1699vsl3jmd73j03kh5mlmvcbpp1n77&#45;tree&#45;sitter&#45;javascript&#45;0.20.0&#45;22.f772967</title>
<polygon fill="none" stroke="black" points="579.75,-108 306.5,-108 306.5,-72 579.75,-72 579.75,-108"/>
<text text-anchor="middle" x="443.12" y="-86.45" font-family="sans" font-size="14.00">tree&#45;sitter&#45;javascript&#45;0.20.0&#45;22.f772967</text>
</g>
<!-- /gnu/store/h1699vsl3jmd73j03kh5mlmvcbpp1n77&#45;tree&#45;sitter&#45;javascript&#45;0.20.0&#45;22.f772967&#45;&gt;/gnu/store/h1699vsl3jmd73j03kh5mlmvcbpp1n77&#45;tree&#45;sitter&#45;javascript&#45;0.20.0&#45;22.f772967 -->
<g id="edge2" class="edge">
<title>/gnu/store/h1699vsl3jmd73j03kh5mlmvcbpp1n77&#45;tree&#45;sitter&#45;javascript&#45;0.20.0&#45;22.f772967&#45;&gt;/gnu/store/h1699vsl3jmd73j03kh5mlmvcbpp1n77&#45;tree&#45;sitter&#45;javascript&#45;0.20.0&#45;22.f772967</title>
<path fill="none" stroke="red" d="M579.84,-100.33C590.9,-98.08 597.75,-94.64 597.75,-90 597.75,-87.17 595.21,-84.79 590.72,-82.85"/>
<polygon fill="red" stroke="red" points="591.88,-79.54 581.3,-80.09 589.91,-86.26 591.88,-79.54"/>
</g>
</g>
</svg>
